<?xml version="1.0" encoding="UTF-8" standalone="no"?>
<!-- Created with Inkscape (http://www.inkscape.org/) -->

<svg
   width="428.42218"
   height="219.57158"
   viewBox="0 0 428.42218 219.57158"
   version="1.1"
   id="svg1"
   xml:space="preserve"
   xmlns="http://www.w3.org/2000/svg"
   xmlns:svg="http://www.w3.org/2000/svg"><defs
     id="defs1" /><g
     id="layer7"
     transform="translate(1068.149,-661.98846)"><path
       id="path24-8"
       style="fill:#131313;fill-opacity:1;stroke-width:1.14247"
       d="m -983.62643,444.40968 c -10.1473,0.22127 -18.86437,1.81364 -29.13067,5.14559 -16.25,5.27389 -30.8905,14.45208 -44.0075,27.58889 -6.3668,6.3765 -9.5887,10.3661 -14.3323,17.7462 -10.9341,17.012 -16.4983,34.3084 -17.9559,55.816 -0.5579,8.2317 2.0543,26.877 4.8711,34.7739 0.5469,1.5333 1.1444,3.3259 1.3277,3.9831 0.1832,0.6571 0.6824,2.089 1.1113,3.1842 0.4287,1.0952 1.1607,2.9791 1.6244,4.1838 2.4047,6.2484 9.1408,17.9022 13.9305,24.099 11.9673,15.4828 27.911,27.9736 44.4693,34.8387 2.1905,0.9081 4.3417,1.8098 4.7797,2.0038 5.2446,2.3222 19.83367,5.6646 26.68297,6.114 1.3143,0.087 7.3177,0.091 13.3414,0.01 9.5169,-0.1297 11.6574,-0.28 16.3293,-1.1358 9.0574,-1.6591 15.0481,-3.2351 18.9178,-4.9782 0.4381,-0.1974 2.0502,-0.841 3.5836,-1.4303 6.3287,-2.4327 13.9851,-6.5255 19.8147,-10.5924 0.6032,-0.4208 1.7677,-1.2188 2.5884,-1.774 0.8207,-0.5552 5.3872,-3.5025 5.9348,-3.9858 15.2152,-13.4258 24.0618,-18.97 33.8666,-28.5262 l -43.2868,-51.246 c -5.8465,6.2524 -24.7497,22.5859 -28.8742,26.0365 -4.3603,3.6479 -9.1404,7.0668 -11.6925,8.361 -2.9594,1.5008 -8.9294,3.3829 -13.2165,4.166 -6.0247,1.1004 -9.9544,0.9734 -16.4051,-0.5267 -9.452,-2.1978 -18.98957,-8.4061 -24.30877,-15.8227 -4.5015,-6.2765 -7.151,-12.4105 -9.0595,-20.9706 -0.6661,-2.9881 -0.5165,-11.6351 0.2611,-15.0195 2.4587,-10.7017 5.6601,-16.6667 12.7658,-23.7911 2.1333,-2.1389 4.0001,-3.8893 4.1481,-3.8893 0.1481,0 1.1396,-0.5983 2.2047,-1.3299 6.13537,-4.2144 15.69827,-7.076 23.84007,-7.1337 2.4095,-0.017 5.3668,0.1737 6.5715,0.4239 5.9957,1.2452 7.6963,1.6932 10.213,2.6911 3.168,1.256 7.0012,3.801 11.6813,7.7541 10.0284,8.4703 31.6558,31.7103 31.871,33.8948 l 48.4429,56.402 c 3.494,4.3973 25.1711,24.7839 30.2136,28.8415 2.6285,2.1151 7.0493,5.3602 9.8225,7.2118 4.8429,3.2337 14.7306,8.4061 18.0564,9.4455 0.8762,0.2738 1.7714,0.6289 1.9904,0.7899 0.5687,0.4181 9.1803,3.0968 11.5497,3.5925 11.7475,2.4579 12.7747,2.5541 27.4795,2.5438 13.435,-0.01 14.1485,-0.047 19.7144,-1.0844 10.7382,-2.0009 13.2044,-2.7104 23.8959,-6.875 9.2504,-3.6032 17.2598,-8.2594 26.741,-15.5438 3.3901,-2.6046 13.4345,-12.4797 15.1399,-14.8856 0.8552,-1.2064 2.2684,-3.0908 3.1418,-4.1861 1.4792,-1.8547 2.8618,-4.0138 5.0652,-7.9125 0.4967,-0.8789 1.1516,-1.8787 1.4549,-2.2202 0.955,-1.0752 7.3992,-14.1464 7.3992,-15.0083 0,-0.2935 1.3176,-3.3107 2.0195,-4.6235 0.2033,-0.3803 0.3703,-0.9812 0.3703,-1.3343 0,-0.3532 0.2498,-1.2065 0.5535,-1.8967 3.3071,-7.5182 5.4272,-19.712 5.4089,-31.0944 -0.032,-19.6467 -3.5891,-34.5782 -12.3418,-51.8039 -10.8095,-21.2733 -27.7496,-38.0251 -49.7755,-49.22225 -4.7467,-2.41307 -13.4143,-5.78744 -17.3246,-6.7455 -0.6571,-0.161 -2.5388,-0.65598 -4.1816,-1.10007 -9.3364,-2.52383 -17.0026,-3.36993 -28.5462,-3.15296 -11.3584,0.2135 -16.8089,0.92847 -26.2143,3.44303 -9.5854,2.56273 -15.1107,4.81801 -25.324,10.33357 -2.9575,1.5972 -8.1931,5.01164 -11.9135,7.77188 -8.3703,6.2102 -26.0693,21.6944 -35.7161,32.6004 l 43.7974,51.2699 c 4.2452,-4.6773 6.6782,-8.3337 15.8036,-16.7345 5.5917,-6.2416 11.9824,-12.3973 15.3496,-14.7874 8.9976,-6.3866 18.9368,-9.2566 28.9792,-8.5506 6.0252,0.4235 12.0874,2.1336 18.005,5.1455 3.5628,1.8134 6.2782,3.7844 10.2688,7.4529 6.7359,6.1921 11.402,15.1864 12.8372,24.7416 0.7484,4.9448 0.7496,8.0865 0.011,13.0023 -1.8474,12.3001 -8.9701,23.6533 -19.0873,30.4205 -6.0038,4.0159 -10.3873,5.8381 -17.1661,7.1382 h -0.011 c -10.9669,2.1035 -22.5695,-0.3662 -32.0962,-6.8302 -4.57,-3.101 -19.2918,-20.1587 -28.2027,-30.4297 l -53.6493,-61.8385 c -8.7336,-9.8436 -21.9994,-22.896 -28.5194,-28.0597 -6.8589,-5.43221 -8.5629,-6.66422 -13.6984,-9.89843 -11.9755,-7.54194 -26.1549,-13.04392 -38.9757,-15.12435 -1.5333,-0.24881 -3.5222,-0.61266 -4.4181,-0.80778 -0.896,-0.19507 -5.431,-0.57163 -10.0793,-0.83676 -3.8106,-0.21736 -7.3527,-0.29466 -10.7352,-0.22091 z" /><path
       id="path1-5-1"
       style="fill:#edc531;fill-opacity:1;stroke-width:1.14247"
       d="m -962.64683,662.01476 c -10.1473,0.2213 -18.86437,1.8137 -29.13067,5.1456 -16.25,5.2739 -30.8905,14.4521 -44.0075,27.5889 -6.3668,6.3765 -9.5887,10.3661 -14.3323,17.7462 -10.9341,17.012 -16.4983,34.3084 -17.9559,55.816 -0.5579,8.2317 2.0543,26.877 4.8711,34.7739 0.5469,1.53328 1.1444,3.32588 1.3277,3.98308 0.1832,0.6571 0.6824,2.089 1.1113,3.1842 0.4287,1.0952 1.1607,2.9791 1.6244,4.1838 2.4047,6.2484 9.1408,17.9022 13.9305,24.099 11.9673,15.4828 27.911,27.9736 44.4693,34.8387 2.1905,0.9081 4.3417,1.8098 4.7797,2.0038 5.2446,2.3222 19.83367,5.6646 26.68297,6.114 1.3143,0.087 7.3177,0.091 13.3414,0.01 9.5169,-0.1297 11.6574,-0.28 16.3293,-1.1358 9.0574,-1.6591 15.0481,-3.2351 18.9178,-4.9782 0.4381,-0.1974 2.0502,-0.841 3.5836,-1.4303 6.3287,-2.4327 13.9851,-6.5255 19.8147,-10.5924 0.6032,-0.4208 1.7677,-1.2188 2.5884,-1.774 0.8207,-0.5552 5.3872,-3.5025 5.9348,-3.9858 15.2152,-13.4258 24.0618,-18.97 33.8666,-28.5262 l -43.2868,-51.24598 c -5.8465,6.2524 -24.7497,22.5859 -28.8742,26.03648 -4.3603,3.6479 -9.1404,7.0668 -11.6925,8.361 -2.9594,1.5008 -8.9294,3.3829 -13.2165,4.166 -6.0247,1.1004 -9.9544,0.9734 -16.4051,-0.5267 -9.45197,-2.1978 -18.98957,-8.4061 -24.30877,-15.82268 -4.5015,-6.2765 -7.151,-12.4105 -9.0595,-20.9706 -0.6661,-2.9881 -0.5165,-11.635 0.2611,-15.0195 2.4587,-10.7017 5.6601,-16.6667 12.7658,-23.7911 2.1333,-2.1389 4.0001,-3.8893 4.1481,-3.8893 0.1481,0 1.1396,-0.5983 2.2047,-1.3299 6.13537,-4.2144 15.69827,-7.076 23.84007,-7.1337 2.4095,-0.017 5.3668,0.1737 6.5715,0.4239 5.9957,1.2452 7.6963,1.6932 10.213,2.6911 3.168,1.256 7.0012,3.801 11.6813,7.7541 10.0284,8.4703 31.6558,31.7103 31.871,33.8948 l 48.4429,56.40198 c 3.494,4.3973 25.1711,24.7839 30.2136,28.8415 2.6285,2.1151 7.0493,5.3602 9.8225,7.2118 4.8429,3.2337 14.7306,8.4061 18.0564,9.4455 0.8762,0.2738 1.7714,0.6289 1.9904,0.7899 0.5687,0.4181 9.1803,3.0968 11.5497,3.5925 11.7475,2.4579 12.7747,2.5541 27.4795,2.5438 13.435,-0.01 14.1485,-0.047 19.7144,-1.0844 10.7382,-2.0009 13.2044,-2.7104 23.8959,-6.875 9.2504,-3.6032 17.2598,-8.2594 26.741,-15.5438 3.3901,-2.6046 13.4345,-12.4797 15.1399,-14.8856 0.8552,-1.2064 2.2684,-3.0908 3.1418,-4.1861 1.4792,-1.8547 2.8618,-4.0138 5.0652,-7.9125 0.4967,-0.8789 1.1516,-1.8787 1.4549,-2.2202 0.955,-1.0752 7.3992,-14.1464 7.3992,-15.0083 0,-0.2935 1.3176,-3.3107 2.0195,-4.6235 0.2033,-0.3803 0.3703,-0.9812 0.3703,-1.3343 0,-0.3532 0.2498,-1.2065 0.5535,-1.8967 3.3071,-7.51818 5.4272,-19.71198 5.4089,-31.09438 -0.032,-19.6467 -3.5891,-34.5782 -12.3418,-51.8039 -10.8095,-21.2733 -27.7496,-38.0251 -49.7755,-49.2222 -4.7467,-2.4131 -13.4143,-5.7875 -17.3246,-6.7455 -0.6571,-0.161 -2.5388,-0.656 -4.1816,-1.1001 -9.3364,-2.5238 -17.0026,-3.3699 -28.5462,-3.153 -11.3584,0.2135 -16.8089,0.9285 -26.2143,3.4431 -9.5854,2.5627 -15.1107,4.818 -25.324,10.3335 -2.9575,1.5972 -8.1931,5.0117 -11.9135,7.772 -8.3703,6.2101 -26.0693,21.6943 -35.7161,32.6003 l 43.7974,51.2699 c 4.2452,-4.6773 6.6782,-8.3337 15.8036,-16.7345 5.5917,-6.2416 11.9824,-12.3973 15.3496,-14.7874 8.9976,-6.3866 18.9368,-9.2566 28.9792,-8.5506 6.0252,0.4235 12.0874,2.1336 18.005,5.1455 3.5628,1.8134 6.2782,3.7844 10.2688,7.4529 6.7359,6.1921 11.402,15.1864 12.8372,24.7416 0.7484,4.9448 0.7496,8.0865 0.011,13.0023 -1.8474,12.3001 -8.9701,23.6533 -19.0873,30.42048 -6.0038,4.0159 -10.3873,5.8381 -17.1661,7.1382 h -0.011 c -10.9669,2.1035 -22.5695,-0.3662 -32.0962,-6.8302 -4.57,-3.101 -19.2918,-20.15868 -28.2027,-30.42968 l -53.6493,-61.8385 c -8.7336,-9.8436 -21.9994,-22.896 -28.5194,-28.0597 -6.8589,-5.4322 -8.5629,-6.6642 -13.6984,-9.8984 -11.9755,-7.542 -26.1549,-13.0439 -38.9757,-15.1244 -1.5333,-0.2488 -3.5222,-0.6126 -4.4181,-0.8078 -0.896,-0.195 -5.431,-0.5716 -10.0793,-0.8367 -3.8106,-0.2174 -7.3527,-0.2947 -10.7352,-0.2209 z" /></g></svg>
